<svg width="17" height="22" viewBox="0 0 17 22" fill="none" xmlns="http://www.w3.org/2000/svg">
<path d="M8.5 11.7693C10.1569 11.7693 11.5 10.3917 11.5 8.6924C11.5 6.99306 10.1569 5.61548 8.5 5.61548C6.84315 5.61548 5.5 6.99306 5.5 8.6924C5.5 10.3917 6.84315 11.7693 8.5 11.7693Z" stroke="#E6E0E9" stroke-width="2" stroke-linecap="round" stroke-linejoin="round"/>
<path d="M16 8.69231C16 15.6154 8.5 21 8.5 21C8.5 21 1 15.6154 1 8.69231C1 6.65218 1.79018 4.69561 3.1967 3.25302C4.60322 1.81044 6.51088 1 8.5 1C10.4891 1 12.3968 1.81044 13.8033 3.25302C15.2098 4.69561 16 6.65218 16 8.69231Z" stroke="#E6E0E9" stroke-width="2" stroke-linecap="round" stroke-linejoin="round"/>
</svg>
