<svg width="26" height="19" viewBox="0 0 26 19" fill="none" xmlns="http://www.w3.org/2000/svg">
<path d="M26 9.39191C26 9.78521 25.8356 10.1624 25.5431 10.4405C25.2505 10.7186 24.8537 10.8748 24.44 10.8748H1.56C1.14626 10.8748 0.74947 10.7186 0.456913 10.4405C0.164357 10.1624 0 9.78521 0 9.39191C0 8.99861 0.164357 8.62142 0.456913 8.34332C0.74947 8.06521 1.14626 7.90898 1.56 7.90898H24.44C24.8537 7.90898 25.2505 8.06521 25.5431 8.34332C25.8356 8.62142 26 8.99861 26 9.39191ZM1.56 2.96587H24.44C24.8537 2.96587 25.2505 2.80963 25.5431 2.53153C25.8356 2.25342 26 1.87623 26 1.48293C26 1.08963 25.8356 0.712445 25.5431 0.434341C25.2505 0.156237 24.8537 0 24.44 0H1.56C1.14626 0 0.74947 0.156237 0.456913 0.434341C0.164357 0.712445 0 1.08963 0 1.48293C0 1.87623 0.164357 2.25342 0.456913 2.53153C0.74947 2.80963 1.14626 2.96587 1.56 2.96587ZM24.44 15.818H1.56C1.14626 15.818 0.74947 15.9742 0.456913 16.2523C0.164357 16.5304 0 16.9076 0 17.3009C0 17.6942 0.164357 18.0714 0.456913 18.3495C0.74947 18.6276 1.14626 18.7838 1.56 18.7838H24.44C24.8537 18.7838 25.2505 18.6276 25.5431 18.3495C25.8356 18.0714 26 17.6942 26 17.3009C26 16.9076 25.8356 16.5304 25.5431 16.2523C25.2505 15.9742 24.8537 15.818 24.44 15.818Z" fill="white"/>
</svg>
